<svg width="200" height="200" xmlns="http://www.w3.org/2000/svg">
  <rect width="200" height="200" fill="#fff8f0"/>
  <polygon points="65,60 70,160 75,160 70,60" fill="#FF8C00"/>
  <polygon points="115,60 120,160 125,160 120,60" fill="#FF8C00"/>
  <polygon points="90,70 95,150 100,150 95,70" fill="#FFA500"/>
  <polygon points="62,55 72,65 68,65" fill="#228B22"/>
  <polygon points="112,55 122,65 118,65" fill="#228B22"/>
  <polygon points="87,65 97,75 93,75" fill="#228B22"/>
  <ellipse cx="67" cy="160" rx="4" ry="8" fill="#D2691E"/>
  <ellipse cx="122" cy="160" rx="4" ry="8" fill="#D2691E"/>
  <ellipse cx="97" cy="150" rx="3" ry="6" fill="#D2691E"/>
  <text x="100" y="30" text-anchor="middle" font-family="Arial" font-size="14" fill="#228B22">Baby Carrots</text>
</svg>